<mxfile host="65bd71144e">
    <diagram id="eSTHF5rFsPMKAYC23gU7" name="Page-1">
        <mxGraphModel dx="1040" dy="779" grid="1" gridSize="10" guides="1" tooltips="1" connect="1" arrows="1" fold="1" page="1" pageScale="1" pageWidth="850" pageHeight="1100" background="none" math="0" shadow="0">
            <root>
                <mxCell id="0"/>
                <mxCell id="1" parent="0"/>
                <mxCell id="30" style="edgeStyle=none;html=1;exitX=0;exitY=0.25;exitDx=0;exitDy=0;" edge="1" parent="1" source="32">
                    <mxGeometry relative="1" as="geometry">
                        <mxPoint x="240" y="403" as="targetPoint"/>
                    </mxGeometry>
                </mxCell>
                <mxCell id="31" style="edgeStyle=none;html=1;exitX=1;exitY=0.25;exitDx=0;exitDy=0;entryX=0;entryY=0.25;entryDx=0;entryDy=0;" edge="1" parent="1" source="32" target="43">
                    <mxGeometry relative="1" as="geometry"/>
                </mxCell>
                <mxCell id="32" value="Gerecht" style="swimlane;whiteSpace=wrap;html=1;" vertex="1" parent="1">
                    <mxGeometry x="320" y="350" width="200" height="210" as="geometry">
                        <mxRectangle x="60" y="70" width="90" height="30" as="alternateBounds"/>
                    </mxGeometry>
                </mxCell>
                <mxCell id="33" value="&lt;ul&gt;&lt;li&gt;ID&lt;/li&gt;&lt;li&gt;keuken_id&lt;/li&gt;&lt;li&gt;type_id&lt;/li&gt;&lt;li&gt;user_id&lt;/li&gt;&lt;li&gt;datum_toegevoegd&lt;/li&gt;&lt;li&gt;titel&lt;/li&gt;&lt;li&gt;korte_omschrijving&lt;/li&gt;&lt;li&gt;lange_omschrijving&lt;/li&gt;&lt;li&gt;afbeelding&lt;/li&gt;&lt;/ul&gt;" style="rounded=0;whiteSpace=wrap;html=1;align=left;" vertex="1" parent="32">
                    <mxGeometry y="20" width="200" height="190" as="geometry"/>
                </mxCell>
                <mxCell id="34" value="Keuken, Type" style="swimlane;whiteSpace=wrap;html=1;" vertex="1" parent="1">
                    <mxGeometry x="40" y="350" width="200" height="90" as="geometry">
                        <mxRectangle x="310" y="70" width="120" height="30" as="alternateBounds"/>
                    </mxGeometry>
                </mxCell>
                <mxCell id="35" value="&lt;ul&gt;&lt;li&gt;ID&lt;/li&gt;&lt;li&gt;record_type[K, T]&lt;/li&gt;&lt;li&gt;omschrijving&lt;/li&gt;&lt;/ul&gt;" style="rounded=0;whiteSpace=wrap;html=1;align=left;" vertex="1" parent="34">
                    <mxGeometry y="20" width="200" height="70" as="geometry"/>
                </mxCell>
                <mxCell id="36" style="edgeStyle=none;html=1;exitX=0.5;exitY=0;exitDx=0;exitDy=0;entryX=0.5;entryY=1;entryDx=0;entryDy=0;" edge="1" parent="1" source="37" target="33">
                    <mxGeometry relative="1" as="geometry"/>
                </mxCell>
                <mxCell id="37" value="Ingredient" style="swimlane;whiteSpace=wrap;html=1;" vertex="1" parent="1">
                    <mxGeometry x="320" y="600" width="200" height="110" as="geometry">
                        <mxRectangle x="540" y="70" width="100" height="30" as="alternateBounds"/>
                    </mxGeometry>
                </mxCell>
                <mxCell id="38" value="&lt;ul&gt;&lt;li&gt;ID&lt;/li&gt;&lt;li&gt;gerecht_id&lt;/li&gt;&lt;li&gt;artikel_id&lt;/li&gt;&lt;li&gt;aantal&lt;/li&gt;&lt;/ul&gt;" style="rounded=0;whiteSpace=wrap;html=1;align=left;" vertex="1" parent="37">
                    <mxGeometry y="20" width="200" height="90" as="geometry"/>
                </mxCell>
                <mxCell id="39" style="edgeStyle=none;html=1;exitX=0.5;exitY=0;exitDx=0;exitDy=0;entryX=0.5;entryY=1;entryDx=0;entryDy=0;" edge="1" parent="1" source="40" target="38">
                    <mxGeometry relative="1" as="geometry"/>
                </mxCell>
                <mxCell id="40" value="Artiekel" style="swimlane;whiteSpace=wrap;html=1;" vertex="1" parent="1">
                    <mxGeometry x="320" y="760" width="200" height="160" as="geometry"/>
                </mxCell>
                <mxCell id="41" value="&lt;ul&gt;&lt;li&gt;ID&lt;/li&gt;&lt;li&gt;naam&lt;/li&gt;&lt;li&gt;omschrijving&lt;/li&gt;&lt;li&gt;prijs&lt;/li&gt;&lt;li&gt;eneheid&lt;/li&gt;&lt;li&gt;verpakking&lt;/li&gt;&lt;/ul&gt;" style="rounded=0;whiteSpace=wrap;html=1;align=left;" vertex="1" parent="40">
                    <mxGeometry y="20" width="200" height="140" as="geometry"/>
                </mxCell>
                <mxCell id="42" value="User" style="swimlane;whiteSpace=wrap;html=1;" vertex="1" parent="1">
                    <mxGeometry x="600" y="350" width="200" height="130" as="geometry"/>
                </mxCell>
                <mxCell id="43" value="&lt;ul&gt;&lt;li&gt;ID&lt;/li&gt;&lt;li&gt;user_name&lt;/li&gt;&lt;li&gt;password&lt;/li&gt;&lt;li&gt;e-mail&lt;/li&gt;&lt;li&gt;afbeelding&lt;/li&gt;&lt;/ul&gt;" style="rounded=0;whiteSpace=wrap;html=1;align=left;" vertex="1" parent="42">
                    <mxGeometry y="20" width="200" height="110" as="geometry"/>
                </mxCell>
                <mxCell id="44" style="edgeStyle=none;html=1;exitX=0.5;exitY=0;exitDx=0;exitDy=0;entryX=1;entryY=0.8;entryDx=0;entryDy=0;strokeColor=default;entryPerimeter=0;" edge="1" parent="1" source="46" target="33">
                    <mxGeometry relative="1" as="geometry">
                        <Array as="points">
                            <mxPoint x="700" y="522"/>
                        </Array>
                    </mxGeometry>
                </mxCell>
                <mxCell id="45" style="edgeStyle=none;html=1;exitX=0.75;exitY=0;exitDx=0;exitDy=0;entryX=0.75;entryY=1;entryDx=0;entryDy=0;strokeColor=default;dashed=1;" edge="1" parent="1" source="46" target="42">
                    <mxGeometry relative="1" as="geometry"/>
                </mxCell>
                <mxCell id="46" value="Gerecht info" style="swimlane;whiteSpace=wrap;html=1;" vertex="1" parent="1">
                    <mxGeometry x="590" y="600" width="220" height="480" as="geometry"/>
                </mxCell>
                <mxCell id="47" value="&lt;ul&gt;&lt;li&gt;ID&lt;/li&gt;&lt;li&gt;record_type [B, O, W, F]&lt;/li&gt;&lt;li&gt;gerecht_id&lt;/li&gt;&lt;li&gt;user_id&lt;/li&gt;&lt;li&gt;datum&lt;/li&gt;&lt;li&gt;nummeriekveld&lt;/li&gt;&lt;li&gt;tekstveld&lt;/li&gt;&lt;/ul&gt;" style="rounded=0;whiteSpace=wrap;html=1;align=left;" vertex="1" parent="46">
                    <mxGeometry x="10" y="34" width="200" height="156" as="geometry"/>
                </mxCell>
                <mxCell id="48" value="Bereidingswijze (B)" style="swimlane;whiteSpace=wrap;html=1;" vertex="1" parent="46">
                    <mxGeometry x="10" y="200" width="200" height="80" as="geometry">
                        <mxRectangle x="25" y="180" width="150" height="30" as="alternateBounds"/>
                    </mxGeometry>
                </mxCell>
                <mxCell id="49" value="&lt;ul&gt;&lt;li&gt;stap (nummeriekveld)&lt;/li&gt;&lt;li&gt;bereiding (tekstveld)&lt;/li&gt;&lt;/ul&gt;" style="rounded=0;whiteSpace=wrap;html=1;align=left;" vertex="1" parent="48">
                    <mxGeometry y="23" width="200" height="57" as="geometry"/>
                </mxCell>
                <mxCell id="50" value="Opmerkingen (O)" style="swimlane;whiteSpace=wrap;html=1;" vertex="1" parent="46">
                    <mxGeometry x="10" y="290" width="200" height="60" as="geometry">
                        <mxRectangle x="30" y="220" width="140" height="30" as="alternateBounds"/>
                    </mxGeometry>
                </mxCell>
                <mxCell id="51" value="&lt;ul&gt;&lt;li&gt;[user_id]&lt;/li&gt;&lt;li&gt;opmerking (tekstveld)&lt;/li&gt;&lt;/ul&gt;" style="rounded=0;whiteSpace=wrap;html=1;align=left;" vertex="1" parent="50">
                    <mxGeometry y="20" width="200" height="40" as="geometry"/>
                </mxCell>
                <mxCell id="52" value="Waardering (W)" style="swimlane;whiteSpace=wrap;html=1;" vertex="1" parent="46">
                    <mxGeometry x="10" y="360" width="200" height="50" as="geometry">
                        <mxRectangle x="35" y="260" width="130" height="30" as="alternateBounds"/>
                    </mxGeometry>
                </mxCell>
                <mxCell id="53" value="&lt;ul&gt;&lt;li&gt;aantal (nummeriek veld)&lt;/li&gt;&lt;/ul&gt;" style="rounded=0;whiteSpace=wrap;html=1;align=left;" vertex="1" parent="52">
                    <mxGeometry y="20" width="200" height="30" as="geometry"/>
                </mxCell>
                <mxCell id="54" value="Favoriet (F)" style="swimlane;whiteSpace=wrap;html=1;" vertex="1" parent="46">
                    <mxGeometry x="10" y="420" width="200" height="50" as="geometry">
                        <mxRectangle x="45" y="300" width="110" height="30" as="alternateBounds"/>
                    </mxGeometry>
                </mxCell>
                <mxCell id="55" value="&lt;ul&gt;&lt;li&gt;[user_id]&lt;/li&gt;&lt;/ul&gt;" style="rounded=0;whiteSpace=wrap;html=1;align=left;" vertex="1" parent="54">
                    <mxGeometry y="20" width="200" height="30" as="geometry"/>
                </mxCell>
                <mxCell id="56" style="edgeStyle=none;html=1;exitX=0;exitY=0.25;exitDx=0;exitDy=0;entryX=1;entryY=0.75;entryDx=0;entryDy=0;" edge="1" parent="1" source="33" target="34">
                    <mxGeometry relative="1" as="geometry"/>
                </mxCell>
            </root>
        </mxGraphModel>
    </diagram>
</mxfile>